<svg width="28" height="28" viewBox="0 0 28 28" fill="none" xmlns="http://www.w3.org/2000/svg">
<path d="M21.7656 4.47563C19.5588 2.70994 16.8164 1.74861 13.9902 1.75C10.6586 1.75 7.54687 3.03352 5.22047 5.3643C2.97226 7.61961 1.74015 10.5973 1.75 13.7468C1.75007 16.0559 2.42797 18.3141 3.69961 20.2415L3.71 20.2563C3.72531 20.2787 3.74117 20.3011 3.75703 20.323C3.77289 20.3448 3.79258 20.3733 3.79695 20.3804L3.80898 20.4023C3.87078 20.5116 3.91836 20.6451 3.87625 20.7796L2.8689 24.4251C2.8286 24.5606 2.80654 24.701 2.80328 24.8423C2.80255 25.2143 2.94935 25.5714 3.21148 25.8352C3.47362 26.0991 3.82969 26.2483 4.20164 26.25C4.39818 26.2435 4.59187 26.2011 4.77312 26.1248L8.46398 24.7926L8.51047 24.7745C8.61087 24.7324 8.71876 24.711 8.82765 24.7116C8.92805 24.7119 9.02757 24.7304 9.12133 24.7663C9.20992 24.8008 10.0144 25.1087 10.8631 25.346C11.5686 25.5429 13.0364 25.8382 14.1865 25.8382C17.4486 25.8382 20.4947 24.5749 22.7631 22.2802C25.0119 20.003 26.25 16.9761 26.25 13.7534C26.2503 12.9261 26.1627 12.1012 25.9886 11.2924C25.4231 8.63352 23.9236 6.21195 21.7656 4.47563ZM8.75 15.75C8.40388 15.75 8.06554 15.6474 7.77775 15.4551C7.48996 15.2628 7.26566 14.9895 7.13321 14.6697C7.00075 14.3499 6.9661 13.9981 7.03362 13.6586C7.10115 13.3191 7.26782 13.0073 7.51256 12.7626C7.7573 12.5178 8.06912 12.3512 8.40859 12.2836C8.74806 12.2161 9.09992 12.2508 9.41969 12.3832C9.73946 12.5157 10.0128 12.74 10.2051 13.0278C10.3974 13.3155 10.5 13.6539 10.5 14C10.5 14.4641 10.3156 14.9092 9.98743 15.2374C9.65925 15.5656 9.21413 15.75 8.75 15.75ZM14 15.75C13.6539 15.75 13.3155 15.6474 13.0278 15.4551C12.74 15.2628 12.5157 14.9895 12.3832 14.6697C12.2508 14.3499 12.2161 13.9981 12.2836 13.6586C12.3511 13.3191 12.5178 13.0073 12.7626 12.7626C13.0073 12.5178 13.3191 12.3512 13.6586 12.2836C13.9981 12.2161 14.3499 12.2508 14.6697 12.3832C14.9895 12.5157 15.2628 12.74 15.4551 13.0278C15.6474 13.3155 15.75 13.6539 15.75 14C15.75 14.4641 15.5656 14.9092 15.2374 15.2374C14.9092 15.5656 14.4641 15.75 14 15.75ZM19.25 15.75C18.9039 15.75 18.5655 15.6474 18.2778 15.4551C17.99 15.2628 17.7657 14.9895 17.6332 14.6697C17.5008 14.3499 17.4661 13.9981 17.5336 13.6586C17.6011 13.3191 17.7678 13.0073 18.0126 12.7626C18.2573 12.5178 18.5691 12.3512 18.9086 12.2836C19.2481 12.2161 19.5999 12.2508 19.9197 12.3832C20.2395 12.5157 20.5128 12.74 20.7051 13.0278C20.8974 13.3155 21 13.6539 21 14C21 14.4641 20.8156 14.9092 20.4874 15.2374C20.1592 15.5656 19.7141 15.75 19.25 15.75Z" fill="black"/>
</svg>
