<svg width="17" height="17" viewBox="0 0 17 17" fill="#000" xmlns="http://www.w3.org/2000/svg">
<g clip-path="url(#clip0_33_318)">
<path d="M10.4738 2.8895C11.6848 4.10326 12.8791 5.30041 14.0961 6.52015C14.0297 6.59061 13.9513 6.67968 13.8677 6.76344C10.8967 9.73869 7.92705 12.7153 4.94743 15.6812C4.78677 15.8414 4.55307 15.963 4.33199 16.0215C3.07455 16.3532 1.8118 16.661 0.549715 16.9747C0.138092 17.0771 -0.0763497 16.8677 0.0239002 16.4616C0.345895 15.1548 0.666562 13.8479 0.998516 12.5438C1.03437 12.4015 1.11536 12.252 1.21827 12.1489C4.26295 9.09126 7.31294 6.03824 10.3623 2.98521C10.3935 2.95331 10.4293 2.92738 10.4738 2.8895Z" fill="#000"/>
<path d="M11.5918 1.84392C12.0452 1.36732 12.4794 0.846851 12.9807 0.401494C13.5722 -0.124293 14.5814 -0.135593 15.1895 0.3769C15.702 0.808962 16.1827 1.29154 16.6156 1.80404C17.1407 2.42621 17.1255 3.40001 16.5844 4.00689C16.1382 4.50742 15.6204 4.94413 15.141 5.40279C13.9659 4.22492 12.7649 3.02046 11.5918 1.84392Z" fill="#000"/>
</g>
<defs>
<clipPath id="clip0_33_318">
<rect width="17" height="17" fill="white"/>
</clipPath>
</defs>
</svg>
