<svg width="20" height="16" viewBox="0 0 20 16" fill="none" xmlns="http://www.w3.org/2000/svg">
<path d="M17.2188 0.4375H2.78125C2.14328 0.438182 1.53164 0.691917 1.08053 1.14303C0.629417 1.59414 0.375682 2.20578 0.375 2.84375V13.1562C0.375682 13.7942 0.629417 14.4059 1.08053 14.857C1.53164 15.3081 2.14328 15.5618 2.78125 15.5625H17.2188C17.8567 15.5618 18.4684 15.3081 18.9195 14.857C19.3706 14.4059 19.6243 13.7942 19.625 13.1562V2.84375C19.6243 2.20578 19.3706 1.59414 18.9195 1.14303C18.4684 0.691917 17.8567 0.438182 17.2188 0.4375ZM16.6095 4.4177L10.422 9.2302C10.3013 9.32399 10.1528 9.37491 10 9.37491C9.84717 9.37491 9.6987 9.32399 9.57805 9.2302L3.39055 4.4177C3.31785 4.3628 3.25679 4.294 3.21091 4.21529C3.16503 4.13659 3.13525 4.04956 3.1233 3.95925C3.11135 3.86893 3.11747 3.77715 3.1413 3.68922C3.16513 3.6013 3.2062 3.51898 3.26211 3.44707C3.31803 3.37515 3.38768 3.31506 3.46702 3.2703C3.54636 3.22553 3.63381 3.19698 3.72428 3.1863C3.81475 3.17562 3.90644 3.18303 3.99402 3.2081C4.0816 3.23316 4.16333 3.27538 4.23445 3.3323L10 7.81652L15.7655 3.3323C15.9097 3.22343 16.0909 3.17568 16.27 3.19938C16.4491 3.22308 16.6117 3.31632 16.7226 3.45894C16.8335 3.60157 16.8838 3.78211 16.8626 3.96152C16.8414 4.14094 16.7505 4.30481 16.6095 4.4177Z" fill="#616161"/>
</svg>
