<svg width="232" height="232" viewBox="0 0 232 232" fill="none" xmlns="http://www.w3.org/2000/svg">
<path d="M199.411 154.656C198.659 153.75 197.921 152.844 197.196 151.969C187.227 139.911 181.196 132.634 181.196 98.5003C181.196 80.8284 176.968 66.3284 168.635 55.4534C162.491 47.4195 154.185 41.325 143.237 36.8209C143.097 36.7426 142.971 36.6398 142.866 36.5173C138.928 23.3314 128.153 14.5 116 14.5C103.847 14.5 93.0764 23.3314 89.1388 36.5037C89.0337 36.6217 88.9096 36.7212 88.7718 36.7983C63.2246 47.3153 50.8089 67.493 50.8089 98.4867C50.8089 132.634 44.7869 139.911 34.8091 151.955C34.0841 152.83 33.3455 153.718 32.5933 154.643C30.6503 156.986 29.4192 159.837 29.0458 162.858C28.6724 165.879 29.1723 168.943 30.4863 171.689C33.282 177.58 39.2406 181.236 46.042 181.236H186.008C192.778 181.236 198.695 177.584 201.5 171.721C202.82 168.974 203.325 165.907 202.954 162.883C202.584 159.858 201.354 157.003 199.411 154.656ZM116 217.5C122.548 217.495 128.972 215.717 134.592 212.356C140.211 208.995 144.816 204.176 147.918 198.41C148.064 198.133 148.137 197.824 148.128 197.512C148.119 197.199 148.029 196.894 147.868 196.626C147.707 196.359 147.479 196.137 147.206 195.984C146.934 195.83 146.627 195.75 146.314 195.75H85.695C85.382 195.749 85.0741 195.829 84.8012 195.982C84.5283 196.135 84.2997 196.357 84.1377 196.625C83.9758 196.892 83.8859 197.198 83.8769 197.51C83.8679 197.823 83.9401 198.133 84.0864 198.41C87.1882 204.175 91.7925 208.994 97.4111 212.355C103.03 215.716 109.453 217.494 116 217.5Z" fill="#E3B306"/>
</svg>
