<svg width="92" height="92" viewBox="0 0 92 92" fill="none" xmlns="http://www.w3.org/2000/svg">
<path d="M46 46C49.9804 46 53.8713 44.8197 57.1809 42.6083C60.4904 40.397 63.0699 37.2539 64.5931 33.5765C66.1163 29.8992 66.5148 25.8527 65.7383 21.9488C64.9618 18.045 63.0451 14.459 60.2305 11.6445C57.416 8.82995 53.8301 6.91323 49.9262 6.13671C46.0223 5.36018 41.9759 5.75872 38.2985 7.28193C34.6211 8.80515 31.478 11.3846 29.2667 14.6942C27.0553 18.0037 25.875 21.8947 25.875 25.875C25.875 31.2125 27.9953 36.3314 31.7695 40.1055C35.5436 43.8797 40.6625 46 46 46ZM46 51.75C33.5261 51.75 8.625 59.455 8.625 74.75V86.25H83.375V74.75C83.375 59.455 58.4739 51.75 46 51.75Z" fill="#E0E0E4"/>
</svg>
