<svg width="200" height="148" viewBox="0 0 200 148" fill="none" xmlns="http://www.w3.org/2000/svg">
<path d="M157.51 44.71C157.452 43.7885 157.086 42.9133 156.472 42.2243C155.857 41.5353 155.029 41.0725 154.12 40.9098C131.819 36.9086 122.51 34.0159 101.699 24.6161C101.165 24.3748 100.586 24.25 100 24.25C99.4141 24.25 98.835 24.3748 98.3011 24.6161C77.4904 34.0159 68.1808 36.9086 45.88 40.9098C44.9712 41.0725 44.1431 41.5353 43.5285 42.2243C42.9138 42.9133 42.5481 43.7885 42.4898 44.71C41.4972 60.4649 43.6139 75.1448 48.7882 88.3422C53.0254 99.1071 59.2961 108.955 67.2579 117.349C81.0431 131.974 95.6791 138.327 98.4712 139.451C99.4634 139.852 100.573 139.852 101.565 139.451C104.357 138.327 118.993 131.974 132.778 117.349C140.727 108.952 146.985 99.1042 151.212 88.3422C156.386 75.1448 158.503 60.4649 157.51 44.71ZM123.737 64.0743L95.1712 97.0743C94.8039 97.4998 94.3535 97.8458 93.8476 98.091C93.3418 98.3361 92.7912 98.4753 92.2296 98.5H92.0594C90.9798 98.5002 89.9431 98.0772 89.1719 97.3218L76.4875 84.8952C76.1006 84.516 75.7921 84.0643 75.5796 83.5659C75.3672 83.0675 75.2551 82.5321 75.2496 81.9904C75.2384 80.8962 75.6624 79.8425 76.4282 79.0609C77.1941 78.2794 78.239 77.8341 79.3331 77.823C80.4273 77.8118 81.481 78.2358 82.2625 79.0016L91.8016 88.3576L117.506 58.6757C117.86 58.266 118.292 57.9302 118.776 57.6874C119.26 57.4446 119.788 57.2995 120.328 57.2605C120.868 57.2214 121.411 57.2892 121.925 57.4599C122.439 57.6307 122.915 57.901 123.324 58.2555C123.734 58.6099 124.07 59.0416 124.313 59.5259C124.555 60.0102 124.701 60.5375 124.74 61.0778C124.779 61.6182 124.711 62.1609 124.54 62.675C124.369 63.1892 124.099 63.6646 123.745 64.0743H123.737Z" fill="#E3B306"/>
<circle cx="164.5" cy="9.5" r="9.5" fill="#E3B306"/>
<circle cx="3" cy="54" r="3" fill="#E3B306"/>
<circle cx="44" cy="15" r="6" fill="#E3B306"/>
<circle cx="173" cy="102" r="3" fill="#E3B306"/>
<circle cx="195" cy="64" r="5" fill="#E3B306"/>
<circle cx="29" cy="103" r="11" fill="#E3B306"/>
</svg>
